<svg width="8" height="8" viewBox="0 0 8 8" fill="none" xmlns="http://www.w3.org/2000/svg">
<g clip-path="url(#clip0_312_25)">
<path d="M7.33335 1.84608L5.80002 0.568359L5.37002 1.07481L6.90335 2.35254L7.33335 1.84608ZM2.62669 1.07481L2.20002 0.568359L0.666687 1.84277L1.09669 2.34923L2.62669 1.07481ZM4.16669 2.6008H3.66669V4.5869L5.25002 5.53029L5.50002 5.12314L4.16669 4.33863V2.6008ZM4.00002 1.27673C2.34335 1.27673 1.00002 2.61073 1.00002 4.25588C1.00002 5.90103 2.34002 7.23503 4.00002 7.23503C5.65669 7.23503 7.00002 5.90103 7.00002 4.25588C7.00002 2.61073 5.65669 1.27673 4.00002 1.27673ZM4.00002 6.57299C2.71002 6.57299 1.66669 5.53691 1.66669 4.25588C1.66669 2.97485 2.71002 1.93877 4.00002 1.93877C5.29002 1.93877 6.33335 2.97485 6.33335 4.25588C6.33335 5.53691 5.29002 6.57299 4.00002 6.57299Z" fill="white"/>
</g>
<defs>
<clipPath id="clip0_312_25">
<rect width="8" height="7.33333" fill="white"/>
</clipPath>
</defs>
</svg>
