<svg width="23" height="23" viewBox="0 0 23 23" fill="none" xmlns="http://www.w3.org/2000/svg">
<g clip-path="url(#clip0_317_28)">
<path d="M8.48251 10.3675H6.59751V12.2525H8.48251V10.3675ZM12.2525 10.3675H10.3675V12.2525H12.2525V10.3675ZM16.0225 10.3675H14.1375V12.2525H16.0225V10.3675ZM17.9075 3.77001H16.965V1.88501H15.08V3.77001H7.54001V1.88501H5.65501V3.77001H4.71251C3.66634 3.77001 2.83694 4.61826 2.83694 5.65501L2.82751 18.85C2.82751 19.8868 3.66634 20.735 4.71251 20.735H17.9075C18.9443 20.735 19.7925 19.8868 19.7925 18.85V5.65501C19.7925 4.61826 18.9443 3.77001 17.9075 3.77001ZM17.9075 18.85H4.71251V8.48251H17.9075V18.85Z" fill="#26EFEF"/>
</g>
<defs>
<clipPath id="clip0_317_28">
<rect width="22.62" height="22.62" fill="white"/>
</clipPath>
</defs>
</svg>
